<?xml version="1.0" standalone="no"?>
<!DOCTYPE svg PUBLIC "-//W3C//DTD SVG 20010904//EN"
 "http://www.w3.org/TR/2001/REC-SVG-20010904/DTD/svg10.dtd">
<svg version="1.0" xmlns="http://www.w3.org/2000/svg"
 width="567.000000pt" height="567.000000pt" viewBox="0 0 567.000000 567.000000"
 preserveAspectRatio="xMidYMid meet">
<metadata>
Created by potrace 1.11, written by Peter Selinger 2001-2013
</metadata>
<g transform="translate(0.000000,567.000000) scale(0.100000,-0.100000)"
fill="#000000" stroke="none">
<path d="M2613 5038 c-4 -7 -10 -208 -11 -446 -2 -238 -7 -431 -10 -427 -3 3
-14 34 -23 68 -38 136 -122 314 -195 412 -65 86 -95 114 -159 148 -48 25 -58
27 -305 36 -140 5 -329 6 -420 2 -147 -7 -171 -11 -221 -34 -31 -14 -59 -33
-62 -41 -4 -9 -18 -21 -32 -28 -13 -6 -27 -19 -31 -30 -7 -22 -51 -68 -65 -68
-11 0 -149 -138 -149 -150 0 -5 -14 -24 -31 -42 -30 -33 -109 -143 -109 -153
0 -2 -13 -26 -29 -52 -16 -27 -39 -73 -51 -103 -22 -56 -95 -177 -117 -195 -7
-5 -24 -53 -37 -105 -13 -52 -30 -111 -39 -130 -25 -56 -55 -161 -62 -215 -6
-47 -15 -83 -61 -225 -25 -78 -32 -272 -30 -770 2 -374 4 -430 19 -464 9 -21
17 -55 17 -75 0 -47 59 -207 102 -279 19 -32 47 -84 62 -117 113 -245 133
-278 231 -380 46 -49 135 -113 135 -99 0 4 6 1 13 -5 32 -26 572 -48 816 -33
145 9 156 11 173 33 53 68 67 79 95 79 16 0 53 16 83 35 30 19 60 35 67 35 6
0 14 9 18 19 3 10 16 22 28 25 12 3 31 22 42 42 10 20 33 46 50 58 17 11 54
46 81 76 27 30 61 67 74 81 14 14 33 35 43 48 26 33 35 18 26 -46 -5 -32 -10
-178 -11 -324 -2 -215 0 -269 11 -283 12 -14 35 -16 190 -14 l176 3 7 65 c4
36 12 178 18 315 5 138 14 287 19 332 13 122 34 253 41 253 6 0 50 -67 50 -77
0 -9 41 -70 82 -124 15 -19 39 -60 53 -90 28 -59 76 -132 125 -188 81 -95 113
-137 128 -170 9 -20 30 -52 47 -71 31 -37 43 -52 124 -161 27 -36 67 -83 89
-105 22 -21 47 -54 56 -71 30 -59 138 -164 237 -230 83 -55 102 -64 134 -61
l38 3 94 175 c52 96 97 181 100 188 4 9 -15 12 -77 12 -45 0 -90 5 -101 10
-36 20 -155 146 -227 243 -40 53 -80 104 -91 114 -10 10 -29 38 -41 63 -25 48
-85 128 -150 198 -22 24 -40 47 -40 53 0 5 -16 32 -35 60 -19 28 -35 57 -35
64 0 7 -17 35 -39 62 -21 27 -46 63 -55 79 -38 67 -67 115 -133 224 -39 63
-82 142 -97 175 -15 33 -34 74 -43 90 -21 41 -59 161 -66 210 -5 38 -4 42 34
68 21 15 49 27 62 27 29 0 246 102 247 116 0 6 22 21 48 32 27 12 55 28 62 37
8 9 31 25 53 37 42 21 154 128 183 175 10 15 29 39 42 53 28 29 112 158 112
173 0 5 14 27 31 48 35 45 70 164 90 309 13 101 7 399 -9 445 -6 17 -18 55
-27 85 -20 68 -61 158 -85 185 -9 11 -32 47 -50 80 -19 33 -37 62 -40 65 -4 3
-19 28 -35 57 -15 29 -35 60 -44 70 -9 11 -23 32 -32 48 -9 15 -31 47 -48 69
-17 23 -46 64 -65 91 -20 30 -44 54 -62 60 -16 5 -31 12 -34 15 -17 19 -91 53
-130 60 -25 4 -81 14 -125 23 -44 9 -128 19 -186 22 -100 6 -107 8 -118 31
l-11 24 -179 0 c-133 0 -182 -3 -188 -12z m541 -260 c27 -16 54 -28 61 -28 15
0 45 -34 75 -85 14 -22 36 -52 50 -66 14 -14 32 -39 40 -55 8 -16 22 -39 33
-50 10 -12 30 -44 45 -71 33 -60 80 -135 109 -177 13 -17 30 -47 38 -66 9 -19
20 -43 26 -54 13 -23 42 -114 59 -185 14 -60 8 -249 -9 -311 -6 -19 -17 -66
-26 -104 -11 -47 -26 -81 -46 -103 -16 -19 -29 -40 -29 -47 0 -7 -18 -38 -40
-70 -22 -31 -40 -61 -40 -66 0 -5 -13 -19 -30 -32 -16 -12 -33 -30 -36 -41 -9
-28 -132 -150 -179 -177 -22 -13 -51 -33 -65 -45 -14 -13 -42 -28 -62 -34 -21
-7 -40 -21 -43 -32 -4 -10 -10 -19 -15 -19 -5 0 -21 -5 -37 -11 -15 -6 -30 -9
-32 -7 -7 5 -12 1896 -6 1944 l6 40 52 -10 c29 -6 74 -23 101 -38z m-1294
-123 c37 -19 125 -108 158 -160 27 -43 86 -159 121 -240 36 -84 53 -155 61
-260 11 -141 27 -277 35 -297 6 -16 25 -18 186 -18 l179 0 -2 -777 -3 -778
-157 -3 -157 -3 -6 -47 c-9 -67 -27 -145 -37 -156 -4 -6 -8 -25 -8 -44 0 -46
-46 -147 -74 -161 -12 -7 -29 -23 -37 -36 -22 -35 -78 -94 -156 -163 -39 -35
-77 -76 -83 -93 -7 -16 -20 -29 -29 -29 -9 0 -22 -9 -29 -20 -7 -11 -17 -20
-24 -20 -6 0 -26 -11 -44 -25 -19 -14 -55 -32 -81 -40 -28 -9 -63 -30 -89 -56
l-43 -42 -113 5 c-92 4 -122 10 -158 28 -51 26 -147 120 -187 183 -28 44 -135
257 -147 292 -4 11 -25 50 -47 86 -43 71 -98 218 -99 261 0 14 -7 55 -16 90
-15 55 -16 118 -11 518 l5 455 27 90 c15 50 34 124 42 165 17 79 48 188 81
280 11 30 26 80 32 110 9 35 27 72 52 104 42 53 72 106 93 167 21 58 133 239
181 291 24 26 44 52 44 57 0 15 100 115 135 135 17 10 43 35 58 57 16 21 35
39 42 39 8 0 21 13 30 30 10 19 27 33 48 39 46 12 193 4 227 -14z"/>
<path d="M4423 802 c-29 -53 -75 -139 -103 -189 l-51 -93 64 0 c61 0 64 1 80
33 22 42 92 173 146 270 l42 77 -63 0 -63 0 -52 -98z"/>
<path d="M4682 833 c-21 -38 -52 -93 -69 -123 -16 -30 -47 -85 -67 -122 l-37
-68 53 0 54 0 27 53 c14 28 60 114 101 190 l74 137 -49 0 -48 0 -39 -67z"/>
<path d="M4835 718 c-55 -100 -101 -186 -103 -190 -2 -4 18 -8 45 -8 l49 0 59
112 c33 62 79 147 102 190 l41 78 -46 0 -47 -1 -100 -181z"/>
</g>
</svg>
